<?xml version="1.0" encoding="UTF-8" standalone="no"?>
<svg
   xmlns:dc="http://purl.org/dc/elements/1.1/"
   xmlns:cc="http://creativecommons.org/ns#"
   xmlns:rdf="http://www.w3.org/1999/02/22-rdf-syntax-ns#"
   xmlns:svg="http://www.w3.org/2000/svg"
   xmlns="http://www.w3.org/2000/svg"
   xmlns:sodipodi="http://sodipodi.sourceforge.net/DTD/sodipodi-0.dtd"
   xmlns:inkscape="http://www.inkscape.org/namespaces/inkscape"
   height="271.42801"
   width="355.30499"
   version="1.1"
   id="Layer_1"
   x="0px"
   y="0px"
   viewBox="0 0 355.305 271.42802"
   xml:space="preserve"
   sodipodi:docname="send.svg"
   inkscape:version="1.0rc1 (09960d6f05, 2020-04-09)"><metadata
   id="metadata981"><rdf:RDF><cc:Work
       rdf:about=""><dc:format>image/svg+xml</dc:format><dc:type
         rdf:resource="http://purl.org/dc/dcmitype/StillImage" /><dc:title></dc:title></cc:Work></rdf:RDF></metadata><defs
   id="defs979" /><sodipodi:namedview
   fit-margin-bottom="0"
   fit-margin-right="0"
   fit-margin-left="0"
   fit-margin-top="0"
   inkscape:document-rotation="0"
   pagecolor="#ffffff"
   bordercolor="#666666"
   borderopacity="1"
   objecttolerance="10"
   gridtolerance="10"
   guidetolerance="10"
   inkscape:pageopacity="0"
   inkscape:pageshadow="2"
   inkscape:window-width="1893"
   inkscape:window-height="1052"
   id="namedview977"
   showgrid="false"
   inkscape:zoom="1.2029149"
   inkscape:cx="86.982498"
   inkscape:cy="-41.96885"
   inkscape:window-x="27"
   inkscape:window-y="0"
   inkscape:window-maximized="1"
   inkscape:current-layer="Layer_1" />

<path
   inkscape:connector-curvature="0"
   style="fill:#4693d2;fill-opacity:1"
   d="M 355.305,0 0,122.262 108.228,143.849 355.303,0 Z"
   id="path928" />
<path
   inkscape:connector-curvature="0"
   style="fill:#6babe0;fill-opacity:0.74902"
   d="m 0,122.262 108.228,21.587 71.829,-41.819 z"
   id="path930" />
<path
   inkscape:connector-curvature="0"
   style="fill:#0a62ad;fill-opacity:1"
   d="M 108.228,143.849 124.993,271.427 355.303,0 Z"
   id="path932" />
<path
   inkscape:connector-curvature="0"
   style="fill:#277cc3;fill-opacity:0.85098"
   d="m 108.228,143.849 16.765,127.578 102.937,-121.314 -17.769,-28.952 -35.202,29.386 5.1,-48.519 h -0.002 l -71.829,41.819 z"
   id="path934" />
<path
   inkscape:connector-curvature="0"
   style="fill:#fecd0d"
   d="m 355.305,0 -208.21,173.809 -22.099,97.619 z"
   id="path936" />
<path
   inkscape:connector-curvature="0"
   style="fill:#6babe0;fill-opacity:0.74902"
   d="m 174.96,150.548 -27.865,23.261 -22.099,97.619 102.937,-121.314 -17.769,-28.952 -35.202,29.386 v -0.002 z"
   id="path938" />
<path
   inkscape:connector-curvature="0"
   style="fill:#4693d2;fill-opacity:1"
   d="M 284.478,242.264 355.305,0 147.095,173.809 284.48,242.264 Z"
   id="path940" />
<path
   inkscape:connector-curvature="0"
   style="fill:#6babe0;fill-opacity:0.752941"
   d="m 174.803,150.548 -27.865,23.261 137.385,68.453 -74.314,-121.1 -35.207,29.388 v -0.002 z"
   id="path942" />

<g
   transform="translate(-70.023046,-144.17507)"
   id="g946">
</g>
<g
   transform="translate(-70.023046,-144.17507)"
   id="g948">
</g>
<g
   transform="translate(-70.023046,-144.17507)"
   id="g950">
</g>
<g
   transform="translate(-70.023046,-144.17507)"
   id="g952">
</g>
<g
   transform="translate(-70.023046,-144.17507)"
   id="g954">
</g>
<g
   transform="translate(-70.023046,-144.17507)"
   id="g956">
</g>
<g
   transform="translate(-70.023046,-144.17507)"
   id="g958">
</g>
<g
   transform="translate(-70.023046,-144.17507)"
   id="g960">
</g>
<g
   transform="translate(-70.023046,-144.17507)"
   id="g962">
</g>
<g
   transform="translate(-70.023046,-144.17507)"
   id="g964">
</g>
<g
   transform="translate(-70.023046,-144.17507)"
   id="g966">
</g>
<g
   transform="translate(-70.023046,-144.17507)"
   id="g968">
</g>
<g
   transform="translate(-70.023046,-144.17507)"
   id="g970">
</g>
<g
   transform="translate(-70.023046,-144.17507)"
   id="g972">
</g>
<g
   transform="translate(-70.023046,-144.17507)"
   id="g974">
</g>
</svg>
